solid OpenSCAD_Model
  facet normal -0.978147 0.207913 0
    outer loop
      vertex 2.41813 9.35206 0
      vertex 2.52769 9.86753 4
      vertex 2.52769 9.86753 0
    endloop
  endfacet
  facet normal -0.978147 0.207913 0
    outer loop
      vertex 2.52769 9.86753 4
      vertex 2.41813 9.35206 0
      vertex 2.41813 9.35206 4
    endloop
  endfacet
  facet normal -0.809017 0.587785 0
    outer loop
      vertex 1.94553 8.42454 0
      vertex 2.25528 8.85088 4
      vertex 2.25528 8.85088 0
    endloop
  endfacet
  facet normal -0.809017 0.587785 0
    outer loop
      vertex 2.25528 8.85088 4
      vertex 1.94553 8.42454 0
      vertex 1.94553 8.42454 4
    endloop
  endfacet
  facet normal 1 -0 0
    outer loop
      vertex -2.5 9.60404 4
      vertex -2.5 10.131 0
      vertex -2.5 10.131 4
    endloop
  endfacet
  facet normal 1 0 0
    outer loop
      vertex -2.5 10.131 0
      vertex -2.5 9.60404 4
      vertex -2.5 9.60404 0
    endloop
  endfacet
  facet normal 0.66913 0.743145 -0
    outer loop
      vertex -1.37857 7.87719 0
      vertex -1.77019 8.22981 4
      vertex -1.37857 7.87719 4
    endloop
  endfacet
  facet normal 0.66913 0.743145 0
    outer loop
      vertex -1.77019 8.22981 4
      vertex -1.37857 7.87719 0
      vertex -1.77019 8.22981 0
    endloop
  endfacet
  facet normal -0.978147 -0.207912 0
    outer loop
      vertex 2.47261 10.3916 0
      vertex 2.36304 10.9071 4
      vertex 2.36304 10.9071 0
    endloop
  endfacet
  facet normal -0.978147 -0.207912 0
    outer loop
      vertex 2.36304 10.9071 4
      vertex 2.47261 10.3916 0
      vertex 2.47261 10.3916 4
    endloop
  endfacet
  facet normal -0.499999 0.866026 0
    outer loop
      vertex 1.59291 8.03292 0
      vertex 1.13653 7.76942 4
      vertex 1.59291 8.03292 4
    endloop
  endfacet
  facet normal -0.499999 0.866026 0
    outer loop
      vertex 1.13653 7.76942 4
      vertex 1.59291 8.03292 0
      vertex 1.13653 7.76942 0
    endloop
  endfacet
  facet normal -0.104529 0.994522 0
    outer loop
      vertex 0.655115 7.55509 0
      vertex 0.131016 7.5 4
      vertex 0.655115 7.55509 4
    endloop
  endfacet
  facet normal -0.104529 0.994522 0
    outer loop
      vertex 0.131016 7.5 4
      vertex 0.655115 7.55509 0
      vertex 0.131016 7.5 0
    endloop
  endfacet
  facet normal 0.309016 0.951057 -0
    outer loop
      vertex -0.39596 7.5 0
      vertex -0.89715 7.66285 4
      vertex -0.39596 7.5 4
    endloop
  endfacet
  facet normal 0.309016 0.951057 0
    outer loop
      vertex -0.89715 7.66285 4
      vertex -0.39596 7.5 0
      vertex -0.89715 7.66285 0
    endloop
  endfacet
  facet normal 0.913545 0.406737 0
    outer loop
      vertex -2.12281 8.62143 4
      vertex -2.33715 9.10285 0
      vertex -2.33715 9.10285 4
    endloop
  endfacet
  facet normal 0.913545 0.406737 0
    outer loop
      vertex -2.33715 9.10285 0
      vertex -2.12281 8.62143 4
      vertex -2.12281 8.62143 0
    endloop
  endfacet
  facet normal 0.309017 -0.951057 0
    outer loop
      vertex -1.14912 12.2553 0
      vertex -0.64794 12.4181 4
      vertex -1.14912 12.2553 4
    endloop
  endfacet
  facet normal 0.309017 -0.951057 0
    outer loop
      vertex -0.64794 12.4181 4
      vertex -1.14912 12.2553 0
      vertex -0.64794 12.4181 0
    endloop
  endfacet
  facet normal 0.669131 -0.743145 0
    outer loop
      vertex -1.96708 11.5929 0
      vertex -1.57546 11.9455 4
      vertex -1.96708 11.5929 4
    endloop
  endfacet
  facet normal 0.669131 -0.743145 0
    outer loop
      vertex -1.57546 11.9455 4
      vertex -1.96708 11.5929 0
      vertex -1.57546 11.9455 0
    endloop
  endfacet
  facet normal 0.913545 -0.406737 0
    outer loop
      vertex -2.44491 10.6551 4
      vertex -2.23058 11.1365 0
      vertex -2.23058 11.1365 4
    endloop
  endfacet
  facet normal 0.913545 -0.406737 0
    outer loop
      vertex -2.23058 11.1365 0
      vertex -2.44491 10.6551 4
      vertex -2.44491 10.6551 0
    endloop
  endfacet
  facet normal -0.10453 -0.994522 0
    outer loop
      vertex -0.13247 12.5277 0
      vertex 0.391622 12.4726 4
      vertex -0.13247 12.5277 4
    endloop
  endfacet
  facet normal -0.10453 -0.994522 -0
    outer loop
      vertex 0.391622 12.4726 4
      vertex -0.13247 12.5277 0
      vertex 0.391622 12.4726 0
    endloop
  endfacet
  facet normal -0.5 -0.866026 0
    outer loop
      vertex 0.907087 12.363 0
      vertex 1.36347 12.0996 4
      vertex 0.907087 12.363 4
    endloop
  endfacet
  facet normal -0.5 -0.866026 -0
    outer loop
      vertex 1.36347 12.0996 4
      vertex 0.907087 12.363 0
      vertex 1.36347 12.0996 0
    endloop
  endfacet
  facet normal -0.809018 -0.587784 0
    outer loop
      vertex 2.09955 11.3635 0
      vertex 1.7898 11.7898 4
      vertex 1.7898 11.7898 0
    endloop
  endfacet
  facet normal -0.809018 -0.587784 0
    outer loop
      vertex 1.7898 11.7898 4
      vertex 2.09955 11.3635 0
      vertex 2.09955 11.3635 4
    endloop
  endfacet
  facet normal -0.978148 0.207912 0
    outer loop
      vertex 2.33489 31.1104 0
      vertex 2.55585 32.15 4
      vertex 2.55585 32.15 0
    endloop
  endfacet
  facet normal -0.978148 0.207912 0
    outer loop
      vertex 2.55585 32.15 4
      vertex 2.33489 31.1104 0
      vertex 2.33489 31.1104 4
    endloop
  endfacet
  facet normal -0.809017 0.587785 0
    outer loop
      vertex 1.7102 30.2506 0
      vertex 2.33489 31.1104 4
      vertex 2.33489 31.1104 0
    endloop
  endfacet
  facet normal -0.809017 0.587785 0
    outer loop
      vertex 2.33489 31.1104 4
      vertex 1.7102 30.2506 0
      vertex 1.7102 30.2506 4
    endloop
  endfacet
  facet normal 1 -0 0
    outer loop
      vertex -2.5 31.6186 4
      vertex -2.5 32.6814 0
      vertex -2.5 32.6814 4
    endloop
  endfacet
  facet normal 1 0 0
    outer loop
      vertex -2.5 32.6814 0
      vertex -2.5 31.6186 4
      vertex -2.5 31.6186 0
    endloop
  endfacet
  facet normal 0.669131 0.743144 -0
    outer loop
      vertex -1.27793 29.9366 0
      vertex -2.06773 30.6477 4
      vertex -1.27793 29.9366 4
    endloop
  endfacet
  facet normal 0.669131 0.743144 0
    outer loop
      vertex -2.06773 30.6477 4
      vertex -1.27793 29.9366 0
      vertex -2.06773 30.6477 0
    endloop
  endfacet
  facet normal -0.978148 -0.207912 0
    outer loop
      vertex 2.55585 32.15 0
      vertex 2.33489 33.1896 4
      vertex 2.33489 33.1896 0
    endloop
  endfacet
  facet normal -0.978148 -0.207912 0
    outer loop
      vertex 2.33489 33.1896 4
      vertex 2.55585 32.15 0
      vertex 2.55585 32.15 4
    endloop
  endfacet
  facet normal -0.499999 0.866026 0
    outer loop
      vertex 1.7102 30.2506 0
      vertex 0.789801 29.7192 4
      vertex 1.7102 30.2506 4
    endloop
  endfacet
  facet normal -0.499999 0.866026 0
    outer loop
      vertex 0.789801 29.7192 4
      vertex 1.7102 30.2506 0
      vertex 0.789801 29.7192 0
    endloop
  endfacet
  facet normal -0.104529 0.994522 0
    outer loop
      vertex 0.789801 29.7192 0
      vertex -0.267159 29.6082 4
      vertex 0.789801 29.7192 4
    endloop
  endfacet
  facet normal -0.104529 0.994522 0
    outer loop
      vertex -0.267159 29.6082 4
      vertex 0.789801 29.7192 0
      vertex -0.267159 29.6082 0
    endloop
  endfacet
  facet normal 0.309016 0.951057 -0
    outer loop
      vertex -0.267159 29.6082 0
      vertex -1.27793 29.9366 4
      vertex -0.267159 29.6082 4
    endloop
  endfacet
  facet normal 0.309016 0.951057 0
    outer loop
      vertex -1.27793 29.9366 4
      vertex -0.267159 29.6082 0
      vertex -1.27793 29.9366 0
    endloop
  endfacet
  facet normal 0.913545 0.406737 0
    outer loop
      vertex -2.06773 30.6477 4
      vertex -2.5 31.6186 0
      vertex -2.5 31.6186 4
    endloop
  endfacet
  facet normal 0.913545 0.406737 0
    outer loop
      vertex -2.5 31.6186 0
      vertex -2.06773 30.6477 4
      vertex -2.06773 30.6477 0
    endloop
  endfacet
  facet normal 0.309014 -0.951057 0
    outer loop
      vertex -1.27793 34.3634 0
      vertex -0.267159 34.6918 4
      vertex -1.27793 34.3634 4
    endloop
  endfacet
  facet normal 0.309014 -0.951057 0
    outer loop
      vertex -0.267159 34.6918 4
      vertex -1.27793 34.3634 0
      vertex -0.267159 34.6918 0
    endloop
  endfacet
  facet normal 0.669132 -0.743143 0
    outer loop
      vertex -2.06773 33.6523 0
      vertex -1.27793 34.3634 4
      vertex -2.06773 33.6523 4
    endloop
  endfacet
  facet normal 0.669132 -0.743143 0
    outer loop
      vertex -1.27793 34.3634 4
      vertex -2.06773 33.6523 0
      vertex -1.27793 34.3634 0
    endloop
  endfacet
  facet normal 0.913545 -0.406738 0
    outer loop
      vertex -2.5 32.6814 4
      vertex -2.06773 33.6523 0
      vertex -2.06773 33.6523 4
    endloop
  endfacet
  facet normal 0.913545 -0.406738 0
    outer loop
      vertex -2.06773 33.6523 0
      vertex -2.5 32.6814 4
      vertex -2.5 32.6814 0
    endloop
  endfacet
  facet normal -0.104529 -0.994522 0
    outer loop
      vertex -0.267159 34.6918 0
      vertex 0.789801 34.5808 4
      vertex -0.267159 34.6918 4
    endloop
  endfacet
  facet normal -0.104529 -0.994522 -0
    outer loop
      vertex 0.789801 34.5808 4
      vertex -0.267159 34.6918 0
      vertex 0.789801 34.5808 0
    endloop
  endfacet
  facet normal -0.499999 -0.866026 0
    outer loop
      vertex 0.789801 34.5808 0
      vertex 1.7102 34.0494 4
      vertex 0.789801 34.5808 4
    endloop
  endfacet
  facet normal -0.499999 -0.866026 -0
    outer loop
      vertex 1.7102 34.0494 4
      vertex 0.789801 34.5808 0
      vertex 1.7102 34.0494 0
    endloop
  endfacet
  facet normal -0.809016 -0.587786 0
    outer loop
      vertex 2.33489 33.1896 0
      vertex 1.7102 34.0494 4
      vertex 1.7102 34.0494 0
    endloop
  endfacet
  facet normal -0.809016 -0.587786 0
    outer loop
      vertex 1.7102 34.0494 4
      vertex 2.33489 33.1896 0
      vertex 2.33489 33.1896 4
    endloop
  endfacet
  facet normal -0.978148 0.207912 0
    outer loop
      vertex 2.33489 53.2604 0
      vertex 2.55585 54.3 4
      vertex 2.55585 54.3 0
    endloop
  endfacet
  facet normal -0.978148 0.207912 0
    outer loop
      vertex 2.55585 54.3 4
      vertex 2.33489 53.2604 0
      vertex 2.33489 53.2604 4
    endloop
  endfacet
  facet normal -0.809018 0.587784 0
    outer loop
      vertex 1.7102 52.4006 0
      vertex 2.33489 53.2604 4
      vertex 2.33489 53.2604 0
    endloop
  endfacet
  facet normal -0.809018 0.587784 0
    outer loop
      vertex 2.33489 53.2604 4
      vertex 1.7102 52.4006 0
      vertex 1.7102 52.4006 4
    endloop
  endfacet
  facet normal 1 -0 0
    outer loop
      vertex -2.5 53.7686 4
      vertex -2.5 54.8314 0
      vertex -2.5 54.8314 4
    endloop
  endfacet
  facet normal 1 0 0
    outer loop
      vertex -2.5 54.8314 0
      vertex -2.5 53.7686 4
      vertex -2.5 53.7686 0
    endloop
  endfacet
  facet normal 0.66913 0.743145 -0
    outer loop
      vertex -1.27793 52.0866 0
      vertex -2.06773 52.7977 4
      vertex -1.27793 52.0866 4
    endloop
  endfacet
  facet normal 0.66913 0.743145 0
    outer loop
      vertex -2.06773 52.7977 4
      vertex -1.27793 52.0866 0
      vertex -2.06773 52.7977 0
    endloop
  endfacet
  facet normal -0.978148 -0.207912 0
    outer loop
      vertex 2.55585 54.3 0
      vertex 2.33489 55.3396 4
      vertex 2.33489 55.3396 0
    endloop
  endfacet
  facet normal -0.978148 -0.207912 0
    outer loop
      vertex 2.33489 55.3396 4
      vertex 2.55585 54.3 0
      vertex 2.55585 54.3 4
    endloop
  endfacet
  facet normal -0.499999 0.866026 0
    outer loop
      vertex 1.7102 52.4006 0
      vertex 0.789801 51.8692 4
      vertex 1.7102 52.4006 4
    endloop
  endfacet
  facet normal -0.499999 0.866026 0
    outer loop
      vertex 0.789801 51.8692 4
      vertex 1.7102 52.4006 0
      vertex 0.789801 51.8692 0
    endloop
  endfacet
  facet normal -0.104529 0.994522 0
    outer loop
      vertex 0.789801 51.8692 0
      vertex -0.267159 51.7581 4
      vertex 0.789801 51.8692 4
    endloop
  endfacet
  facet normal -0.104529 0.994522 0
    outer loop
      vertex -0.267159 51.7581 4
      vertex 0.789801 51.8692 0
      vertex -0.267159 51.7581 0
    endloop
  endfacet
  facet normal 0.309018 0.951056 -0
    outer loop
      vertex -0.267159 51.7581 0
      vertex -1.27793 52.0866 4
      vertex -0.267159 51.7581 4
    endloop
  endfacet
  facet normal 0.309018 0.951056 0
    outer loop
      vertex -1.27793 52.0866 4
      vertex -0.267159 51.7581 0
      vertex -1.27793 52.0866 0
    endloop
  endfacet
  facet normal 0.913546 0.406736 0
    outer loop
      vertex -2.06773 52.7977 4
      vertex -2.5 53.7686 0
      vertex -2.5 53.7686 4
    endloop
  endfacet
  facet normal 0.913546 0.406736 0
    outer loop
      vertex -2.5 53.7686 0
      vertex -2.06773 52.7977 4
      vertex -2.06773 52.7977 0
    endloop
  endfacet
  facet normal 0.309018 -0.951056 0
    outer loop
      vertex -1.27793 56.5134 0
      vertex -0.267159 56.8419 4
      vertex -1.27793 56.5134 4
    endloop
  endfacet
  facet normal 0.309018 -0.951056 0
    outer loop
      vertex -0.267159 56.8419 4
      vertex -1.27793 56.5134 0
      vertex -0.267159 56.8419 0
    endloop
  endfacet
  facet normal 0.66913 -0.743145 0
    outer loop
      vertex -2.06773 55.8023 0
      vertex -1.27793 56.5134 4
      vertex -2.06773 55.8023 4
    endloop
  endfacet
  facet normal 0.66913 -0.743145 0
    outer loop
      vertex -1.27793 56.5134 4
      vertex -2.06773 55.8023 0
      vertex -1.27793 56.5134 0
    endloop
  endfacet
  facet normal 0.913546 -0.406736 0
    outer loop
      vertex -2.5 54.8314 4
      vertex -2.06773 55.8023 0
      vertex -2.06773 55.8023 4
    endloop
  endfacet
  facet normal 0.913546 -0.406736 0
    outer loop
      vertex -2.06773 55.8023 0
      vertex -2.5 54.8314 4
      vertex -2.5 54.8314 0
    endloop
  endfacet
  facet normal -0.104529 -0.994522 0
    outer loop
      vertex -0.267159 56.8419 0
      vertex 0.789801 56.7308 4
      vertex -0.267159 56.8419 4
    endloop
  endfacet
  facet normal -0.104529 -0.994522 -0
    outer loop
      vertex 0.789801 56.7308 4
      vertex -0.267159 56.8419 0
      vertex 0.789801 56.7308 0
    endloop
  endfacet
  facet normal -0.499999 -0.866026 0
    outer loop
      vertex 0.789801 56.7308 0
      vertex 1.7102 56.1994 4
      vertex 0.789801 56.7308 4
    endloop
  endfacet
  facet normal -0.499999 -0.866026 -0
    outer loop
      vertex 1.7102 56.1994 4
      vertex 0.789801 56.7308 0
      vertex 1.7102 56.1994 0
    endloop
  endfacet
  facet normal -0.809018 -0.587784 0
    outer loop
      vertex 2.33489 55.3396 0
      vertex 1.7102 56.1994 4
      vertex 1.7102 56.1994 0
    endloop
  endfacet
  facet normal -0.809018 -0.587784 0
    outer loop
      vertex 1.7102 56.1994 4
      vertex 2.33489 55.3396 0
      vertex 2.33489 55.3396 4
    endloop
  endfacet
  facet normal -1 0 0
    outer loop
      vertex -10 40 0
      vertex -10 64.3 4
      vertex -10 64.3 0
    endloop
  endfacet
  facet normal -1 -0 0
    outer loop
      vertex -10 64.3 4
      vertex -10 40 0
      vertex -10 40 4
    endloop
  endfacet
  facet normal 0 0 1
    outer loop
      vertex -24.5808 10.7898 4
      vertex -41.8692 10.7898 4
      vertex -41.7581 9.73284 4
    endloop
  endfacet
  facet normal 0 0 1
    outer loop
      vertex -30 20 4
      vertex -42.4006 11.7102 4
      vertex -41.8692 10.7898 4
    endloop
  endfacet
  facet normal 0 0 1
    outer loop
      vertex -30 20 4
      vertex -43.2604 12.3349 4
      vertex -42.4006 11.7102 4
    endloop
  endfacet
  facet normal 0 0 1
    outer loop
      vertex -30 20 4
      vertex -44.3 12.5559 4
      vertex -43.2604 12.3349 4
    endloop
  endfacet
  facet normal -0 0 1
    outer loop
      vertex -54.3 20 4
      vertex -44.3 12.5559 4
      vertex -30 20 4
    endloop
  endfacet
  facet normal 0 0 1
    outer loop
      vertex -46.7308 10.7898 4
      vertex -54.3 20 4
      vertex -46.8419 9.73284 4
    endloop
  endfacet
  facet normal 0 0 1
    outer loop
      vertex -46.1994 11.7102 4
      vertex -54.3 20 4
      vertex -46.7308 10.7898 4
    endloop
  endfacet
  facet normal 0 0 1
    outer loop
      vertex -45.3396 12.3349 4
      vertex -54.3 20 4
      vertex -46.1994 11.7102 4
    endloop
  endfacet
  facet normal 0 0 1
    outer loop
      vertex -44.3 12.5559 4
      vertex -54.3 20 4
      vertex -45.3396 12.3349 4
    endloop
  endfacet
  facet normal 0 0 1
    outer loop
      vertex -2.5 10.131 4
      vertex -19.7192 10.7898 4
      vertex -19.6082 9.73284 4
    endloop
  endfacet
  facet normal 0 0 1
    outer loop
      vertex -2.5 31.6186 4
      vertex -20.2506 11.7102 4
      vertex -19.7192 10.7898 4
    endloop
  endfacet
  facet normal 0 0 1
    outer loop
      vertex -2.5 31.6186 4
      vertex -21.1104 12.3349 4
      vertex -20.2506 11.7102 4
    endloop
  endfacet
  facet normal -0 0 1
    outer loop
      vertex -30 20 4
      vertex -21.1104 12.3349 4
      vertex -10 40 4
    endloop
  endfacet
  facet normal 0 0 1
    outer loop
      vertex -21.1104 12.3349 4
      vertex -30 20 4
      vertex -22.15 12.5559 4
    endloop
  endfacet
  facet normal 0 0 1
    outer loop
      vertex -22.15 12.5559 4
      vertex -30 20 4
      vertex -23.1896 12.3349 4
    endloop
  endfacet
  facet normal 0 0 1
    outer loop
      vertex -23.1896 12.3349 4
      vertex -30 20 4
      vertex -24.0494 11.7102 4
    endloop
  endfacet
  facet normal 0 0 1
    outer loop
      vertex -41.8692 10.7898 4
      vertex -24.5808 10.7898 4
      vertex -30 20 4
    endloop
  endfacet
  facet normal 0 0 1
    outer loop
      vertex -24.0494 11.7102 4
      vertex -30 20 4
      vertex -24.5808 10.7898 4
    endloop
  endfacet
  facet normal 0 0 1
    outer loop
      vertex 10 3.8147e-007 4
      vertex 2.47261 10.3916 4
      vertex 2.52769 9.86753 4
    endloop
  endfacet
  facet normal 0 0 1
    outer loop
      vertex 10 3.8147e-007 4
      vertex 2.36304 10.9071 4
      vertex 2.47261 10.3916 4
    endloop
  endfacet
  facet normal 0 0 1
    outer loop
      vertex 10 3.8147e-007 4
      vertex 2.33489 31.1104 4
      vertex 2.36304 10.9071 4
    endloop
  endfacet
  facet normal 0 0 1
    outer loop
      vertex 2.33489 31.1104 4
      vertex 2.09955 11.3635 4
      vertex 2.36304 10.9071 4
    endloop
  endfacet
  facet normal 0 0 1
    outer loop
      vertex 2.33489 31.1104 4
      vertex 1.7898 11.7898 4
      vertex 2.09955 11.3635 4
    endloop
  endfacet
  facet normal -0 0 1
    outer loop
      vertex 1.7102 30.2506 4
      vertex 1.7898 11.7898 4
      vertex 2.33489 31.1104 4
    endloop
  endfacet
  facet normal 0 0 1
    outer loop
      vertex 1.7102 30.2506 4
      vertex 1.36347 12.0996 4
      vertex 1.7898 11.7898 4
    endloop
  endfacet
  facet normal -0 0 1
    outer loop
      vertex 0.789801 29.7192 4
      vertex 1.36347 12.0996 4
      vertex 1.7102 30.2506 4
    endloop
  endfacet
  facet normal 0 0 1
    outer loop
      vertex 1.36347 12.0996 4
      vertex 0.789801 29.7192 4
      vertex 0.907087 12.363 4
    endloop
  endfacet
  facet normal 0 0 1
    outer loop
      vertex 0.789801 29.7192 4
      vertex 0.391622 12.4726 4
      vertex 0.907087 12.363 4
    endloop
  endfacet
  facet normal -0 0 1
    outer loop
      vertex -0.267159 29.6082 4
      vertex 0.391622 12.4726 4
      vertex 0.789801 29.7192 4
    endloop
  endfacet
  facet normal 0 0 1
    outer loop
      vertex 0.391622 12.4726 4
      vertex -0.267159 29.6082 4
      vertex -0.13247 12.5277 4
    endloop
  endfacet
  facet normal 0 0 1
    outer loop
      vertex -0.267159 29.6082 4
      vertex -0.64794 12.4181 4
      vertex -0.13247 12.5277 4
    endloop
  endfacet
  facet normal 0 0 1
    outer loop
      vertex -1.27793 29.9366 4
      vertex -0.64794 12.4181 4
      vertex -0.267159 29.6082 4
    endloop
  endfacet
  facet normal 0 0 1
    outer loop
      vertex -0.64794 12.4181 4
      vertex -1.27793 29.9366 4
      vertex -1.14912 12.2553 4
    endloop
  endfacet
  facet normal 0 0 1
    outer loop
      vertex -1.27793 29.9366 4
      vertex -1.57546 11.9455 4
      vertex -1.14912 12.2553 4
    endloop
  endfacet
  facet normal 0 0 1
    outer loop
      vertex -2.06773 30.6477 4
      vertex -1.57546 11.9455 4
      vertex -1.27793 29.9366 4
    endloop
  endfacet
  facet normal 0 0 1
    outer loop
      vertex -1.57546 11.9455 4
      vertex -2.06773 30.6477 4
      vertex -1.96708 11.5929 4
    endloop
  endfacet
  facet normal 0 0 1
    outer loop
      vertex -19.7192 10.7898 4
      vertex -1.96708 11.5929 4
      vertex -2.06773 30.6477 4
    endloop
  endfacet
  facet normal 0 0 1
    outer loop
      vertex -19.7192 10.7898 4
      vertex -2.23058 11.1365 4
      vertex -1.96708 11.5929 4
    endloop
  endfacet
  facet normal 0 0 1
    outer loop
      vertex -19.7192 10.7898 4
      vertex -2.06773 30.6477 4
      vertex -2.5 31.6186 4
    endloop
  endfacet
  facet normal -0 0 1
    outer loop
      vertex -19.7192 10.7898 4
      vertex -2.44491 10.6551 4
      vertex -2.23058 11.1365 4
    endloop
  endfacet
  facet normal 0 0 1
    outer loop
      vertex 2.33489 33.1896 4
      vertex 10 64.3 4
      vertex 2.33489 53.2604 4
    endloop
  endfacet
  facet normal 0 0 1
    outer loop
      vertex 10 64.3 4
      vertex 2.33489 33.1896 4
      vertex 2.55585 32.15 4
    endloop
  endfacet
  facet normal -0 0 1
    outer loop
      vertex 1.7102 52.4006 4
      vertex 2.33489 33.1896 4
      vertex 2.33489 53.2604 4
    endloop
  endfacet
  facet normal 0 0 1
    outer loop
      vertex 1.7102 52.4006 4
      vertex 1.7102 34.0494 4
      vertex 2.33489 33.1896 4
    endloop
  endfacet
  facet normal -0 0 1
    outer loop
      vertex 0.789801 51.8692 4
      vertex 1.7102 34.0494 4
      vertex 1.7102 52.4006 4
    endloop
  endfacet
  facet normal 0 0 1
    outer loop
      vertex 0.789801 51.8692 4
      vertex 0.789801 34.5808 4
      vertex 1.7102 34.0494 4
    endloop
  endfacet
  facet normal -0 0 1
    outer loop
      vertex -0.267159 51.7581 4
      vertex 0.789801 34.5808 4
      vertex 0.789801 51.8692 4
    endloop
  endfacet
  facet normal 0 0 1
    outer loop
      vertex -0.267159 51.7581 4
      vertex -0.267159 34.6918 4
      vertex 0.789801 34.5808 4
    endloop
  endfacet
  facet normal 0 0 1
    outer loop
      vertex -10 40 4
      vertex -0.267159 51.7581 4
      vertex -1.27793 52.0866 4
    endloop
  endfacet
  facet normal 0 0 1
    outer loop
      vertex -0.267159 51.7581 4
      vertex -10 40 4
      vertex -0.267159 34.6918 4
    endloop
  endfacet
  facet normal 0 0 1
    outer loop
      vertex -10 40 4
      vertex -1.27793 52.0866 4
      vertex -2.06773 52.7977 4
    endloop
  endfacet
  facet normal 0 0 1
    outer loop
      vertex -0.267159 34.6918 4
      vertex -10 40 4
      vertex -1.27793 34.3634 4
    endloop
  endfacet
  facet normal 0 0 1
    outer loop
      vertex -10 40 4
      vertex -2.06773 52.7977 4
      vertex -2.5 53.7686 4
    endloop
  endfacet
  facet normal 0 0 1
    outer loop
      vertex -1.27793 34.3634 4
      vertex -10 40 4
      vertex -2.06773 33.6523 4
    endloop
  endfacet
  facet normal -0 0 1
    outer loop
      vertex 2.55585 32.15 4
      vertex 10 3.8147e-007 4
      vertex 10 64.3 4
    endloop
  endfacet
  facet normal 0 0 1
    outer loop
      vertex 2.33489 53.2604 4
      vertex 10 64.3 4
      vertex 2.55585 54.3 4
    endloop
  endfacet
  facet normal 0 0 1
    outer loop
      vertex 10 64.3 4
      vertex 2.33489 55.3396 4
      vertex 2.55585 54.3 4
    endloop
  endfacet
  facet normal 0 0 1
    outer loop
      vertex 10 64.3 4
      vertex 1.7102 56.1994 4
      vertex 2.33489 55.3396 4
    endloop
  endfacet
  facet normal 0 0 1
    outer loop
      vertex 10 64.3 4
      vertex 0.789801 56.7308 4
      vertex 1.7102 56.1994 4
    endloop
  endfacet
  facet normal 0 0 1
    outer loop
      vertex 10 64.3 4
      vertex -0.267159 56.8419 4
      vertex 0.789801 56.7308 4
    endloop
  endfacet
  facet normal -0 0 1
    outer loop
      vertex -10 64.3 4
      vertex -0.267159 56.8419 4
      vertex 10 64.3 4
    endloop
  endfacet
  facet normal 0 0 1
    outer loop
      vertex -10 64.3 4
      vertex -2.5 53.7686 4
      vertex -2.5 54.8314 4
    endloop
  endfacet
  facet normal 0 0 1
    outer loop
      vertex -2.06773 33.6523 4
      vertex -10 40 4
      vertex -2.5 32.6814 4
    endloop
  endfacet
  facet normal 0 0 1
    outer loop
      vertex -2.5 32.6814 4
      vertex -10 40 4
      vertex -2.5 31.6186 4
    endloop
  endfacet
  facet normal 0 0 1
    outer loop
      vertex -21.1104 12.3349 4
      vertex -2.5 31.6186 4
      vertex -10 40 4
    endloop
  endfacet
  facet normal 0 0 1
    outer loop
      vertex -2.5 53.7686 4
      vertex -10 64.3 4
      vertex -10 40 4
    endloop
  endfacet
  facet normal 0 0 1
    outer loop
      vertex -2.06773 55.8023 4
      vertex -10 64.3 4
      vertex -2.5 54.8314 4
    endloop
  endfacet
  facet normal 0 0 1
    outer loop
      vertex -1.27793 56.5134 4
      vertex -10 64.3 4
      vertex -2.06773 55.8023 4
    endloop
  endfacet
  facet normal 0 0 1
    outer loop
      vertex -0.267159 56.8419 4
      vertex -10 64.3 4
      vertex -1.27793 56.5134 4
    endloop
  endfacet
  facet normal -0 0 1
    outer loop
      vertex 2.33489 31.1104 4
      vertex 10 3.8147e-007 4
      vertex 2.55585 32.15 4
    endloop
  endfacet
  facet normal -0 0 1
    outer loop
      vertex 2.41813 9.35206 4
      vertex 10 3.8147e-007 4
      vertex 2.52769 9.86753 4
    endloop
  endfacet
  facet normal -0 0 1
    outer loop
      vertex 2.25528 8.85088 4
      vertex 10 3.8147e-007 4
      vertex 2.41813 9.35206 4
    endloop
  endfacet
  facet normal -0 0 1
    outer loop
      vertex 1.94553 8.42454 4
      vertex 10 3.8147e-007 4
      vertex 2.25528 8.85088 4
    endloop
  endfacet
  facet normal -0 0 1
    outer loop
      vertex 1.59291 8.03292 4
      vertex 10 3.8147e-007 4
      vertex 1.94553 8.42454 4
    endloop
  endfacet
  facet normal -0 0 1
    outer loop
      vertex 1.13653 7.76942 4
      vertex 10 3.8147e-007 4
      vertex 1.59291 8.03292 4
    endloop
  endfacet
  facet normal -0 0 1
    outer loop
      vertex 0.655115 7.55509 4
      vertex 10 3.8147e-007 4
      vertex 1.13653 7.76942 4
    endloop
  endfacet
  facet normal 0 0 1
    outer loop
      vertex 10 3.8147e-007 4
      vertex 0.655115 7.55509 4
      vertex 10 2.33575e-023 4
    endloop
  endfacet
  facet normal -0 0 1
    outer loop
      vertex 0.131016 7.5 4
      vertex 10 2.33575e-023 4
      vertex 0.655115 7.55509 4
    endloop
  endfacet
  facet normal -0 0 1
    outer loop
      vertex -0.39596 7.5 4
      vertex 10 2.33575e-023 4
      vertex 0.131016 7.5 4
    endloop
  endfacet
  facet normal 0 0 1
    outer loop
      vertex -0.89715 7.66285 4
      vertex 10 2.33575e-023 4
      vertex -0.39596 7.5 4
    endloop
  endfacet
  facet normal 0 0 1
    outer loop
      vertex -21.6186 7.5 4
      vertex -0.89715 7.66285 4
      vertex -1.37857 7.87719 4
    endloop
  endfacet
  facet normal 0 0 1
    outer loop
      vertex -19.7192 10.7898 4
      vertex -2.5 10.131 4
      vertex -2.44491 10.6551 4
    endloop
  endfacet
  facet normal 0 0 1
    outer loop
      vertex -2.5 10.131 4
      vertex -19.6082 9.73284 4
      vertex -2.5 9.60404 4
    endloop
  endfacet
  facet normal 0 0 1
    outer loop
      vertex -19.6082 9.73284 4
      vertex -2.33715 9.10285 4
      vertex -2.5 9.60404 4
    endloop
  endfacet
  facet normal 0 0 1
    outer loop
      vertex -19.9366 8.72207 4
      vertex -2.33715 9.10285 4
      vertex -19.6082 9.73284 4
    endloop
  endfacet
  facet normal 0 0 1
    outer loop
      vertex -2.33715 9.10285 4
      vertex -19.9366 8.72207 4
      vertex -2.12281 8.62143 4
    endloop
  endfacet
  facet normal 0 0 1
    outer loop
      vertex -2.12281 8.62143 4
      vertex -19.9366 8.72207 4
      vertex -1.77019 8.22981 4
    endloop
  endfacet
  facet normal 0 0 1
    outer loop
      vertex -20.6477 7.93227 4
      vertex -1.77019 8.22981 4
      vertex -19.9366 8.72207 4
    endloop
  endfacet
  facet normal 0 0 1
    outer loop
      vertex -1.77019 8.22981 4
      vertex -20.6477 7.93227 4
      vertex -1.37857 7.87719 4
    endloop
  endfacet
  facet normal 0 0 1
    outer loop
      vertex -21.6186 7.5 4
      vertex -1.37857 7.87719 4
      vertex -20.6477 7.93227 4
    endloop
  endfacet
  facet normal 0 0 1
    outer loop
      vertex -0.89715 7.66285 4
      vertex -21.6186 7.5 4
      vertex 10 2.33575e-023 4
    endloop
  endfacet
  facet normal -0 0 1
    outer loop
      vertex -22.6814 7.5 4
      vertex 10 2.33575e-023 4
      vertex -21.6186 7.5 4
    endloop
  endfacet
  facet normal 0 0 1
    outer loop
      vertex -24.5808 10.7898 4
      vertex -41.7581 9.73284 4
      vertex -24.6919 9.73284 4
    endloop
  endfacet
  facet normal 0 0 1
    outer loop
      vertex -24.6919 9.73284 4
      vertex -41.7581 9.73284 4
      vertex -24.3634 8.72207 4
    endloop
  endfacet
  facet normal 0 0 1
    outer loop
      vertex -42.0866 8.72207 4
      vertex -24.3634 8.72207 4
      vertex -41.7581 9.73284 4
    endloop
  endfacet
  facet normal 0 0 1
    outer loop
      vertex -24.3634 8.72207 4
      vertex -42.0866 8.72207 4
      vertex -23.6523 7.93227 4
    endloop
  endfacet
  facet normal 0 0 1
    outer loop
      vertex -42.7977 7.93227 4
      vertex -23.6523 7.93227 4
      vertex -42.0866 8.72207 4
    endloop
  endfacet
  facet normal 0 0 1
    outer loop
      vertex -23.6523 7.93227 4
      vertex -42.7977 7.93227 4
      vertex -22.6814 7.5 4
    endloop
  endfacet
  facet normal 0 0 1
    outer loop
      vertex -43.7686 7.5 4
      vertex -22.6814 7.5 4
      vertex -42.7977 7.93227 4
    endloop
  endfacet
  facet normal 0 0 1
    outer loop
      vertex -22.6814 7.5 4
      vertex -43.7686 7.5 4
      vertex -54.3 3.93711e-015 4
    endloop
  endfacet
  facet normal 0 0 1
    outer loop
      vertex -54.3 3.93711e-015 4
      vertex -43.7686 7.5 4
      vertex -44.8314 7.5 4
    endloop
  endfacet
  facet normal 0 0 1
    outer loop
      vertex -54.3 3.93711e-015 4
      vertex -46.8419 9.73284 4
      vertex -54.3 20 4
    endloop
  endfacet
  facet normal 0 0 1
    outer loop
      vertex -22.6814 7.5 4
      vertex -54.3 3.93711e-015 4
      vertex 10 2.33575e-023 4
    endloop
  endfacet
  facet normal 0 0 1
    outer loop
      vertex -45.8023 7.93227 4
      vertex -54.3 3.93711e-015 4
      vertex -44.8314 7.5 4
    endloop
  endfacet
  facet normal 0 0 1
    outer loop
      vertex -46.5134 8.72207 4
      vertex -54.3 3.93711e-015 4
      vertex -45.8023 7.93227 4
    endloop
  endfacet
  facet normal 0 0 1
    outer loop
      vertex -46.8419 9.73284 4
      vertex -54.3 3.93711e-015 4
      vertex -46.5134 8.72207 4
    endloop
  endfacet
  facet normal 1 -0 0
    outer loop
      vertex 10 3.8147e-007 4
      vertex 10 64.3 0
      vertex 10 64.3 4
    endloop
  endfacet
  facet normal 1 0 0
    outer loop
      vertex 10 64.3 0
      vertex 10 3.8147e-007 4
      vertex 10 3.8147e-007 0
    endloop
  endfacet
  facet normal 0 0 -1
    outer loop
      vertex 2.33489 53.2604 0
      vertex 10 64.3 0
      vertex 2.33489 33.1896 0
    endloop
  endfacet
  facet normal 0 0 -1
    outer loop
      vertex 10 64.3 0
      vertex 2.33489 53.2604 0
      vertex 2.55585 54.3 0
    endloop
  endfacet
  facet normal 0 0 -1
    outer loop
      vertex 1.7102 34.0494 0
      vertex 2.33489 53.2604 0
      vertex 2.33489 33.1896 0
    endloop
  endfacet
  facet normal 0 0 -1
    outer loop
      vertex 1.7102 34.0494 0
      vertex 1.7102 52.4006 0
      vertex 2.33489 53.2604 0
    endloop
  endfacet
  facet normal 0 0 -1
    outer loop
      vertex 0.789801 34.5808 0
      vertex 1.7102 52.4006 0
      vertex 1.7102 34.0494 0
    endloop
  endfacet
  facet normal 0 0 -1
    outer loop
      vertex 0.789801 34.5808 0
      vertex 0.789801 51.8692 0
      vertex 1.7102 52.4006 0
    endloop
  endfacet
  facet normal 0 0 -1
    outer loop
      vertex -0.267159 34.6918 0
      vertex 0.789801 51.8692 0
      vertex 0.789801 34.5808 0
    endloop
  endfacet
  facet normal 0 0 -1
    outer loop
      vertex -0.267159 34.6918 0
      vertex -0.267159 51.7581 0
      vertex 0.789801 51.8692 0
    endloop
  endfacet
  facet normal 0 0 -1
    outer loop
      vertex -10 40 0
      vertex -0.267159 34.6918 0
      vertex -1.27793 34.3634 0
    endloop
  endfacet
  facet normal 0 0 -1
    outer loop
      vertex -0.267159 34.6918 0
      vertex -10 40 0
      vertex -0.267159 51.7581 0
    endloop
  endfacet
  facet normal 0 0 -1
    outer loop
      vertex -10 40 0
      vertex -1.27793 34.3634 0
      vertex -2.06773 33.6523 0
    endloop
  endfacet
  facet normal -0 0 -1
    outer loop
      vertex -0.267159 51.7581 0
      vertex -10 40 0
      vertex -1.27793 52.0866 0
    endloop
  endfacet
  facet normal 0 0 -1
    outer loop
      vertex -10 40 0
      vertex -2.06773 33.6523 0
      vertex -2.5 32.6814 0
    endloop
  endfacet
  facet normal -0 0 -1
    outer loop
      vertex -1.27793 52.0866 0
      vertex -10 40 0
      vertex -2.06773 52.7977 0
    endloop
  endfacet
  facet normal 0 0 -1
    outer loop
      vertex 0.655115 7.55509 0
      vertex 10 3.8147e-007 0
      vertex 10 2.33575e-023 0
    endloop
  endfacet
  facet normal 0 0 -1
    outer loop
      vertex 10 3.8147e-007 0
      vertex 2.55585 32.15 0
      vertex 10 64.3 0
    endloop
  endfacet
  facet normal 0 0 -1
    outer loop
      vertex 10 3.8147e-007 0
      vertex 2.52769 9.86753 0
      vertex 2.47261 10.3916 0
    endloop
  endfacet
  facet normal 0 0 -1
    outer loop
      vertex 10 3.8147e-007 0
      vertex 2.41813 9.35206 0
      vertex 2.52769 9.86753 0
    endloop
  endfacet
  facet normal 0 0 -1
    outer loop
      vertex 10 3.8147e-007 0
      vertex 2.25528 8.85088 0
      vertex 2.41813 9.35206 0
    endloop
  endfacet
  facet normal 0 0 -1
    outer loop
      vertex 10 3.8147e-007 0
      vertex 1.94553 8.42454 0
      vertex 2.25528 8.85088 0
    endloop
  endfacet
  facet normal 0 0 -1
    outer loop
      vertex 10 3.8147e-007 0
      vertex 1.59291 8.03292 0
      vertex 1.94553 8.42454 0
    endloop
  endfacet
  facet normal 0 0 -1
    outer loop
      vertex 10 3.8147e-007 0
      vertex 1.13653 7.76942 0
      vertex 1.59291 8.03292 0
    endloop
  endfacet
  facet normal 0 0 -1
    outer loop
      vertex 10 3.8147e-007 0
      vertex 0.655115 7.55509 0
      vertex 1.13653 7.76942 0
    endloop
  endfacet
  facet normal 0 0 -1
    outer loop
      vertex 10 2.33575e-023 0
      vertex 0.131016 7.5 0
      vertex 0.655115 7.55509 0
    endloop
  endfacet
  facet normal 0 0 -1
    outer loop
      vertex 10 2.33575e-023 0
      vertex -0.39596 7.5 0
      vertex 0.131016 7.5 0
    endloop
  endfacet
  facet normal 0 0 -1
    outer loop
      vertex 10 2.33575e-023 0
      vertex -0.89715 7.66285 0
      vertex -0.39596 7.5 0
    endloop
  endfacet
  facet normal 0 0 -1
    outer loop
      vertex -21.6186 7.5 0
      vertex -0.89715 7.66285 0
      vertex 10 2.33575e-023 0
    endloop
  endfacet
  facet normal 0 0 -1
    outer loop
      vertex -19.6082 9.73284 0
      vertex -2.5 10.131 0
      vertex -2.5 9.60404 0
    endloop
  endfacet
  facet normal 0 0 -1
    outer loop
      vertex -2.5 10.131 0
      vertex -20.2506 11.7102 0
      vertex -2.5 31.6186 0
    endloop
  endfacet
  facet normal 0 0 -1
    outer loop
      vertex -21.1104 12.3349 0
      vertex -2.5 31.6186 0
      vertex -20.2506 11.7102 0
    endloop
  endfacet
  facet normal -0 0 -1
    outer loop
      vertex -2.06773 52.7977 0
      vertex -10 40 0
      vertex -2.5 53.7686 0
    endloop
  endfacet
  facet normal 0 0 -1
    outer loop
      vertex -10 64.3 0
      vertex -2.5 53.7686 0
      vertex -10 40 0
    endloop
  endfacet
  facet normal -0 0 -1
    outer loop
      vertex -2.5 10.131 0
      vertex -19.6082 9.73284 0
      vertex -19.7192 10.7898 0
    endloop
  endfacet
  facet normal 0 0 -1
    outer loop
      vertex -2.33715 9.10285 0
      vertex -19.6082 9.73284 0
      vertex -2.5 9.60404 0
    endloop
  endfacet
  facet normal 0 0 -1
    outer loop
      vertex -19.9366 8.72207 0
      vertex -2.33715 9.10285 0
      vertex -2.12281 8.62143 0
    endloop
  endfacet
  facet normal 0 0 -1
    outer loop
      vertex -19.9366 8.72207 0
      vertex -2.12281 8.62143 0
      vertex -1.77019 8.22981 0
    endloop
  endfacet
  facet normal 0 0 -1
    outer loop
      vertex -20.6477 7.93227 0
      vertex -1.77019 8.22981 0
      vertex -1.37857 7.87719 0
    endloop
  endfacet
  facet normal -0 0 -1
    outer loop
      vertex -0.89715 7.66285 0
      vertex -21.6186 7.5 0
      vertex -1.37857 7.87719 0
    endloop
  endfacet
  facet normal -0 0 -1
    outer loop
      vertex -2.33715 9.10285 0
      vertex -19.9366 8.72207 0
      vertex -19.6082 9.73284 0
    endloop
  endfacet
  facet normal -0 0 -1
    outer loop
      vertex -1.77019 8.22981 0
      vertex -20.6477 7.93227 0
      vertex -19.9366 8.72207 0
    endloop
  endfacet
  facet normal -0 0 -1
    outer loop
      vertex -1.37857 7.87719 0
      vertex -21.6186 7.5 0
      vertex -20.6477 7.93227 0
    endloop
  endfacet
  facet normal 0 0 -1
    outer loop
      vertex 10 2.33575e-023 0
      vertex -22.6814 7.5 0
      vertex -21.6186 7.5 0
    endloop
  endfacet
  facet normal 0 0 -1
    outer loop
      vertex -41.7581 9.73284 0
      vertex -24.6919 9.73284 0
      vertex -24.3634 8.72207 0
    endloop
  endfacet
  facet normal 0 0 -1
    outer loop
      vertex -24.6919 9.73284 0
      vertex -41.7581 9.73284 0
      vertex -41.8692 10.7898 0
    endloop
  endfacet
  facet normal 0 0 -1
    outer loop
      vertex -42.0866 8.72207 0
      vertex -24.3634 8.72207 0
      vertex -23.6523 7.93227 0
    endloop
  endfacet
  facet normal 0 0 -1
    outer loop
      vertex -42.7977 7.93227 0
      vertex -23.6523 7.93227 0
      vertex -22.6814 7.5 0
    endloop
  endfacet
  facet normal 0 0 -1
    outer loop
      vertex -54.3 3.93711e-015 0
      vertex -22.6814 7.5 0
      vertex 10 2.33575e-023 0
    endloop
  endfacet
  facet normal 0 0 -1
    outer loop
      vertex -24.3634 8.72207 0
      vertex -42.0866 8.72207 0
      vertex -41.7581 9.73284 0
    endloop
  endfacet
  facet normal 0 0 -1
    outer loop
      vertex -23.6523 7.93227 0
      vertex -42.7977 7.93227 0
      vertex -42.0866 8.72207 0
    endloop
  endfacet
  facet normal 0 -0 -1
    outer loop
      vertex -43.7686 7.5 0
      vertex -22.6814 7.5 0
      vertex -54.3 3.93711e-015 0
    endloop
  endfacet
  facet normal 0 0 -1
    outer loop
      vertex -22.6814 7.5 0
      vertex -43.7686 7.5 0
      vertex -42.7977 7.93227 0
    endloop
  endfacet
  facet normal -0 0 -1
    outer loop
      vertex -46.5134 8.72207 0
      vertex -54.3 3.93711e-015 0
      vertex -46.8419 9.73284 0
    endloop
  endfacet
  facet normal -0 0 -1
    outer loop
      vertex -45.8023 7.93227 0
      vertex -54.3 3.93711e-015 0
      vertex -46.5134 8.72207 0
    endloop
  endfacet
  facet normal -0 0 -1
    outer loop
      vertex -44.8314 7.5 0
      vertex -54.3 3.93711e-015 0
      vertex -45.8023 7.93227 0
    endloop
  endfacet
  facet normal -0 0 -1
    outer loop
      vertex -43.7686 7.5 0
      vertex -54.3 3.93711e-015 0
      vertex -44.8314 7.5 0
    endloop
  endfacet
  facet normal 0 0 -1
    outer loop
      vertex 2.33489 33.1896 0
      vertex 10 64.3 0
      vertex 2.55585 32.15 0
    endloop
  endfacet
  facet normal 0 0 -1
    outer loop
      vertex 2.33489 55.3396 0
      vertex 10 64.3 0
      vertex 2.55585 54.3 0
    endloop
  endfacet
  facet normal 0 0 -1
    outer loop
      vertex 1.7102 56.1994 0
      vertex 10 64.3 0
      vertex 2.33489 55.3396 0
    endloop
  endfacet
  facet normal 0 0 -1
    outer loop
      vertex 0.789801 56.7308 0
      vertex 10 64.3 0
      vertex 1.7102 56.1994 0
    endloop
  endfacet
  facet normal 0 0 -1
    outer loop
      vertex -0.267159 56.8419 0
      vertex 10 64.3 0
      vertex 0.789801 56.7308 0
    endloop
  endfacet
  facet normal 0 0 -1
    outer loop
      vertex -10 64.3 0
      vertex -0.267159 56.8419 0
      vertex -1.27793 56.5134 0
    endloop
  endfacet
  facet normal 0 0 -1
    outer loop
      vertex -2.5 53.7686 0
      vertex -10 64.3 0
      vertex -2.5 54.8314 0
    endloop
  endfacet
  facet normal 0 0 -1
    outer loop
      vertex -0.267159 56.8419 0
      vertex -10 64.3 0
      vertex 10 64.3 0
    endloop
  endfacet
  facet normal 0 0 -1
    outer loop
      vertex -2.06773 55.8023 0
      vertex -10 64.3 0
      vertex -1.27793 56.5134 0
    endloop
  endfacet
  facet normal 0 0 -1
    outer loop
      vertex -2.5 54.8314 0
      vertex -10 64.3 0
      vertex -2.06773 55.8023 0
    endloop
  endfacet
  facet normal 0 0 -1
    outer loop
      vertex 10 3.8147e-007 0
      vertex 2.47261 10.3916 0
      vertex 2.36304 10.9071 0
    endloop
  endfacet
  facet normal 0 0 -1
    outer loop
      vertex 10 3.8147e-007 0
      vertex 2.36304 10.9071 0
      vertex 2.33489 31.1104 0
    endloop
  endfacet
  facet normal 0 0 -1
    outer loop
      vertex 10 3.8147e-007 0
      vertex 2.33489 31.1104 0
      vertex 2.55585 32.15 0
    endloop
  endfacet
  facet normal 0 0 -1
    outer loop
      vertex 2.09955 11.3635 0
      vertex 2.33489 31.1104 0
      vertex 2.36304 10.9071 0
    endloop
  endfacet
  facet normal 0 0 -1
    outer loop
      vertex 1.7898 11.7898 0
      vertex 2.33489 31.1104 0
      vertex 2.09955 11.3635 0
    endloop
  endfacet
  facet normal 0 0 -1
    outer loop
      vertex 1.7898 11.7898 0
      vertex 1.7102 30.2506 0
      vertex 2.33489 31.1104 0
    endloop
  endfacet
  facet normal 0 0 -1
    outer loop
      vertex 1.36347 12.0996 0
      vertex 1.7102 30.2506 0
      vertex 1.7898 11.7898 0
    endloop
  endfacet
  facet normal 0 0 -1
    outer loop
      vertex 0.789801 29.7192 0
      vertex 1.36347 12.0996 0
      vertex 0.907087 12.363 0
    endloop
  endfacet
  facet normal 0 0 -1
    outer loop
      vertex 1.36347 12.0996 0
      vertex 0.789801 29.7192 0
      vertex 1.7102 30.2506 0
    endloop
  endfacet
  facet normal 0 0 -1
    outer loop
      vertex 0.391622 12.4726 0
      vertex 0.789801 29.7192 0
      vertex 0.907087 12.363 0
    endloop
  endfacet
  facet normal 0 0 -1
    outer loop
      vertex -0.267159 29.6082 0
      vertex 0.391622 12.4726 0
      vertex -0.13247 12.5277 0
    endloop
  endfacet
  facet normal 0 0 -1
    outer loop
      vertex 0.391622 12.4726 0
      vertex -0.267159 29.6082 0
      vertex 0.789801 29.7192 0
    endloop
  endfacet
  facet normal 0 0 -1
    outer loop
      vertex -0.64794 12.4181 0
      vertex -0.267159 29.6082 0
      vertex -0.13247 12.5277 0
    endloop
  endfacet
  facet normal 0 0 -1
    outer loop
      vertex -1.27793 29.9366 0
      vertex -0.64794 12.4181 0
      vertex -1.14912 12.2553 0
    endloop
  endfacet
  facet normal 0 0 -1
    outer loop
      vertex -0.64794 12.4181 0
      vertex -1.27793 29.9366 0
      vertex -0.267159 29.6082 0
    endloop
  endfacet
  facet normal 0 0 -1
    outer loop
      vertex -1.57546 11.9455 0
      vertex -1.27793 29.9366 0
      vertex -1.14912 12.2553 0
    endloop
  endfacet
  facet normal 0 0 -1
    outer loop
      vertex -2.06773 30.6477 0
      vertex -1.57546 11.9455 0
      vertex -1.96708 11.5929 0
    endloop
  endfacet
  facet normal 0 0 -1
    outer loop
      vertex -1.57546 11.9455 0
      vertex -2.06773 30.6477 0
      vertex -1.27793 29.9366 0
    endloop
  endfacet
  facet normal 0 0 -1
    outer loop
      vertex -2.23058 11.1365 0
      vertex -2.06773 30.6477 0
      vertex -1.96708 11.5929 0
    endloop
  endfacet
  facet normal 0 0 -1
    outer loop
      vertex -2.44491 10.6551 0
      vertex -2.06773 30.6477 0
      vertex -2.23058 11.1365 0
    endloop
  endfacet
  facet normal 0 0 -1
    outer loop
      vertex -2.5 31.6186 0
      vertex -2.44491 10.6551 0
      vertex -2.5 10.131 0
    endloop
  endfacet
  facet normal 0 0 -1
    outer loop
      vertex -2.44491 10.6551 0
      vertex -2.5 31.6186 0
      vertex -2.06773 30.6477 0
    endloop
  endfacet
  facet normal 0 0 -1
    outer loop
      vertex -2.5 10.131 0
      vertex -19.7192 10.7898 0
      vertex -20.2506 11.7102 0
    endloop
  endfacet
  facet normal 0 -0 -1
    outer loop
      vertex -10 40 0
      vertex -2.5 31.6186 0
      vertex -21.1104 12.3349 0
    endloop
  endfacet
  facet normal 0 0 -1
    outer loop
      vertex -2.5 31.6186 0
      vertex -10 40 0
      vertex -2.5 32.6814 0
    endloop
  endfacet
  facet normal 0 0 -1
    outer loop
      vertex -30 20 0
      vertex -21.1104 12.3349 0
      vertex -22.15 12.5559 0
    endloop
  endfacet
  facet normal 0 0 -1
    outer loop
      vertex -30 20 0
      vertex -22.15 12.5559 0
      vertex -23.1896 12.3349 0
    endloop
  endfacet
  facet normal 0 0 -1
    outer loop
      vertex -30 20 0
      vertex -23.1896 12.3349 0
      vertex -24.0494 11.7102 0
    endloop
  endfacet
  facet normal 0 0 -1
    outer loop
      vertex -30 20 0
      vertex -24.0494 11.7102 0
      vertex -24.5808 10.7898 0
    endloop
  endfacet
  facet normal 0 0 -1
    outer loop
      vertex -21.1104 12.3349 0
      vertex -30 20 0
      vertex -10 40 0
    endloop
  endfacet
  facet normal 0 0 -1
    outer loop
      vertex -30 20 0
      vertex -24.5808 10.7898 0
      vertex -24.6919 9.73284 0
    endloop
  endfacet
  facet normal 0 0 -1
    outer loop
      vertex -24.6919 9.73284 0
      vertex -41.8692 10.7898 0
      vertex -30 20 0
    endloop
  endfacet
  facet normal 0 0 -1
    outer loop
      vertex -42.4006 11.7102 0
      vertex -30 20 0
      vertex -41.8692 10.7898 0
    endloop
  endfacet
  facet normal 0 0 -1
    outer loop
      vertex -43.2604 12.3349 0
      vertex -30 20 0
      vertex -42.4006 11.7102 0
    endloop
  endfacet
  facet normal 0 0 -1
    outer loop
      vertex -44.3 12.5559 0
      vertex -30 20 0
      vertex -43.2604 12.3349 0
    endloop
  endfacet
  facet normal 0 0 -1
    outer loop
      vertex -54.3 20 0
      vertex -44.3 12.5559 0
      vertex -45.3396 12.3349 0
    endloop
  endfacet
  facet normal 0 0 -1
    outer loop
      vertex -54.3 20 0
      vertex -46.8419 9.73284 0
      vertex -54.3 3.93711e-015 0
    endloop
  endfacet
  facet normal 0 0 -1
    outer loop
      vertex -46.8419 9.73284 0
      vertex -54.3 20 0
      vertex -46.7308 10.7898 0
    endloop
  endfacet
  facet normal 0 0 -1
    outer loop
      vertex -44.3 12.5559 0
      vertex -54.3 20 0
      vertex -30 20 0
    endloop
  endfacet
  facet normal 0 0 -1
    outer loop
      vertex -46.1994 11.7102 0
      vertex -54.3 20 0
      vertex -45.3396 12.3349 0
    endloop
  endfacet
  facet normal 0 0 -1
    outer loop
      vertex -46.7308 10.7898 0
      vertex -54.3 20 0
      vertex -46.1994 11.7102 0
    endloop
  endfacet
  facet normal 0 1 -0
    outer loop
      vertex 10 64.3 0
      vertex -10 64.3 4
      vertex 10 64.3 4
    endloop
  endfacet
  facet normal 0 1 0
    outer loop
      vertex -10 64.3 4
      vertex 10 64.3 0
      vertex -10 64.3 0
    endloop
  endfacet
  facet normal -0.20791 -0.978148 0
    outer loop
      vertex 0.391622 12.4726 0
      vertex 0.907087 12.363 4
      vertex 0.391622 12.4726 4
    endloop
  endfacet
  facet normal -0.20791 -0.978148 -0
    outer loop
      vertex 0.907087 12.363 4
      vertex 0.391622 12.4726 0
      vertex 0.907087 12.363 0
    endloop
  endfacet
  facet normal -0.587785 -0.809017 0
    outer loop
      vertex 1.36347 12.0996 0
      vertex 1.7898 11.7898 4
      vertex 1.36347 12.0996 4
    endloop
  endfacet
  facet normal -0.587785 -0.809017 -0
    outer loop
      vertex 1.7898 11.7898 4
      vertex 1.36347 12.0996 0
      vertex 1.7898 11.7898 0
    endloop
  endfacet
  facet normal 0 1 -0
    outer loop
      vertex 0.131016 7.5 0
      vertex -0.39596 7.5 4
      vertex 0.131016 7.5 4
    endloop
  endfacet
  facet normal 0 1 0
    outer loop
      vertex -0.39596 7.5 4
      vertex 0.131016 7.5 0
      vertex -0.39596 7.5 0
    endloop
  endfacet
  facet normal -0.743145 0.669131 0
    outer loop
      vertex 1.59291 8.03292 0
      vertex 1.94553 8.42454 4
      vertex 1.94553 8.42454 0
    endloop
  endfacet
  facet normal -0.743145 0.669131 0
    outer loop
      vertex 1.94553 8.42454 4
      vertex 1.59291 8.03292 0
      vertex 1.59291 8.03292 4
    endloop
  endfacet
  facet normal 0.207912 -0.978148 0
    outer loop
      vertex -0.64794 12.4181 0
      vertex -0.13247 12.5277 4
      vertex -0.64794 12.4181 4
    endloop
  endfacet
  facet normal 0.207912 -0.978148 0
    outer loop
      vertex -0.13247 12.5277 4
      vertex -0.64794 12.4181 0
      vertex -0.13247 12.5277 0
    endloop
  endfacet
  facet normal -0.866026 -0.499999 0
    outer loop
      vertex 2.36304 10.9071 0
      vertex 2.09955 11.3635 4
      vertex 2.09955 11.3635 0
    endloop
  endfacet
  facet normal -0.866026 -0.499999 0
    outer loop
      vertex 2.09955 11.3635 4
      vertex 2.36304 10.9071 0
      vertex 2.36304 10.9071 4
    endloop
  endfacet
  facet normal -0.994522 -0.104529 0
    outer loop
      vertex 2.52769 9.86753 0
      vertex 2.47261 10.3916 4
      vertex 2.47261 10.3916 0
    endloop
  endfacet
  facet normal -0.994522 -0.104529 0
    outer loop
      vertex 2.47261 10.3916 4
      vertex 2.52769 9.86753 0
      vertex 2.52769 9.86753 4
    endloop
  endfacet
  facet normal -0.951057 0.309016 0
    outer loop
      vertex 2.25528 8.85088 0
      vertex 2.41813 9.35206 4
      vertex 2.41813 9.35206 0
    endloop
  endfacet
  facet normal -0.951057 0.309016 0
    outer loop
      vertex 2.41813 9.35206 4
      vertex 2.25528 8.85088 0
      vertex 2.25528 8.85088 4
    endloop
  endfacet
  facet normal -0.406737 0.913545 0
    outer loop
      vertex 1.13653 7.76942 0
      vertex 0.655115 7.55509 4
      vertex 1.13653 7.76942 4
    endloop
  endfacet
  facet normal -0.406737 0.913545 0
    outer loop
      vertex 0.655115 7.55509 4
      vertex 1.13653 7.76942 0
      vertex 0.655115 7.55509 0
    endloop
  endfacet
  facet normal 0.951057 0.309017 0
    outer loop
      vertex -2.33715 9.10285 4
      vertex -2.5 9.60404 0
      vertex -2.5 9.60404 4
    endloop
  endfacet
  facet normal 0.951057 0.309017 0
    outer loop
      vertex -2.5 9.60404 0
      vertex -2.33715 9.10285 4
      vertex -2.33715 9.10285 0
    endloop
  endfacet
  facet normal 0.743145 0.66913 0
    outer loop
      vertex -1.77019 8.22981 4
      vertex -2.12281 8.62143 0
      vertex -2.12281 8.62143 4
    endloop
  endfacet
  facet normal 0.743145 0.66913 0
    outer loop
      vertex -2.12281 8.62143 0
      vertex -1.77019 8.22981 4
      vertex -1.77019 8.22981 0
    endloop
  endfacet
  facet normal 0.406737 0.913545 -0
    outer loop
      vertex -0.89715 7.66285 0
      vertex -1.37857 7.87719 4
      vertex -0.89715 7.66285 4
    endloop
  endfacet
  facet normal 0.406737 0.913545 0
    outer loop
      vertex -1.37857 7.87719 4
      vertex -0.89715 7.66285 0
      vertex -1.37857 7.87719 0
    endloop
  endfacet
  facet normal 0.994522 -0.104529 0
    outer loop
      vertex -2.5 10.131 4
      vertex -2.44491 10.6551 0
      vertex -2.44491 10.6551 4
    endloop
  endfacet
  facet normal 0.994522 -0.104529 0
    outer loop
      vertex -2.44491 10.6551 0
      vertex -2.5 10.131 4
      vertex -2.5 10.131 0
    endloop
  endfacet
  facet normal 0.866026 -0.5 0
    outer loop
      vertex -2.23058 11.1365 4
      vertex -1.96708 11.5929 0
      vertex -1.96708 11.5929 4
    endloop
  endfacet
  facet normal 0.866026 -0.5 0
    outer loop
      vertex -1.96708 11.5929 0
      vertex -2.23058 11.1365 4
      vertex -2.23058 11.1365 0
    endloop
  endfacet
  facet normal 0.587785 -0.809017 0
    outer loop
      vertex -1.57546 11.9455 0
      vertex -1.14912 12.2553 4
      vertex -1.57546 11.9455 4
    endloop
  endfacet
  facet normal 0.587785 -0.809017 0
    outer loop
      vertex -1.14912 12.2553 4
      vertex -1.57546 11.9455 0
      vertex -1.14912 12.2553 0
    endloop
  endfacet
  facet normal -0.207912 -0.978148 0
    outer loop
      vertex -22.15 12.5559 0
      vertex -21.1104 12.3349 4
      vertex -22.15 12.5559 4
    endloop
  endfacet
  facet normal -0.207912 -0.978148 -0
    outer loop
      vertex -21.1104 12.3349 4
      vertex -22.15 12.5559 0
      vertex -21.1104 12.3349 0
    endloop
  endfacet
  facet normal -0.587785 -0.809017 0
    outer loop
      vertex -21.1104 12.3349 0
      vertex -20.2506 11.7102 4
      vertex -21.1104 12.3349 4
    endloop
  endfacet
  facet normal -0.587785 -0.809017 -0
    outer loop
      vertex -20.2506 11.7102 4
      vertex -21.1104 12.3349 0
      vertex -20.2506 11.7102 0
    endloop
  endfacet
  facet normal 0 1 -0
    outer loop
      vertex -21.6186 7.5 0
      vertex -22.6814 7.5 4
      vertex -21.6186 7.5 4
    endloop
  endfacet
  facet normal 0 1 0
    outer loop
      vertex -22.6814 7.5 4
      vertex -21.6186 7.5 0
      vertex -22.6814 7.5 0
    endloop
  endfacet
  facet normal -0.743144 0.669131 0
    outer loop
      vertex -20.6477 7.93227 0
      vertex -19.9366 8.72207 4
      vertex -19.9366 8.72207 0
    endloop
  endfacet
  facet normal -0.743144 0.669131 0
    outer loop
      vertex -19.9366 8.72207 4
      vertex -20.6477 7.93227 0
      vertex -20.6477 7.93227 4
    endloop
  endfacet
  facet normal 0.207912 -0.978148 0
    outer loop
      vertex -23.1896 12.3349 0
      vertex -22.15 12.5559 4
      vertex -23.1896 12.3349 4
    endloop
  endfacet
  facet normal 0.207912 -0.978148 0
    outer loop
      vertex -22.15 12.5559 4
      vertex -23.1896 12.3349 0
      vertex -22.15 12.5559 0
    endloop
  endfacet
  facet normal -0.866026 -0.499999 0
    outer loop
      vertex -19.7192 10.7898 0
      vertex -20.2506 11.7102 4
      vertex -20.2506 11.7102 0
    endloop
  endfacet
  facet normal -0.866026 -0.499999 0
    outer loop
      vertex -20.2506 11.7102 4
      vertex -19.7192 10.7898 0
      vertex -19.7192 10.7898 4
    endloop
  endfacet
  facet normal -0.994522 -0.104529 0
    outer loop
      vertex -19.6082 9.73284 0
      vertex -19.7192 10.7898 4
      vertex -19.7192 10.7898 0
    endloop
  endfacet
  facet normal -0.994522 -0.104529 0
    outer loop
      vertex -19.7192 10.7898 4
      vertex -19.6082 9.73284 0
      vertex -19.6082 9.73284 4
    endloop
  endfacet
  facet normal -0.951057 0.309016 0
    outer loop
      vertex -19.9366 8.72207 0
      vertex -19.6082 9.73284 4
      vertex -19.6082 9.73284 0
    endloop
  endfacet
  facet normal -0.951057 0.309016 0
    outer loop
      vertex -19.6082 9.73284 4
      vertex -19.9366 8.72207 0
      vertex -19.9366 8.72207 4
    endloop
  endfacet
  facet normal -0.406737 0.913545 0
    outer loop
      vertex -20.6477 7.93227 0
      vertex -21.6186 7.5 4
      vertex -20.6477 7.93227 4
    endloop
  endfacet
  facet normal -0.406737 0.913545 0
    outer loop
      vertex -21.6186 7.5 4
      vertex -20.6477 7.93227 0
      vertex -21.6186 7.5 0
    endloop
  endfacet
  facet normal 0.951056 0.309018 0
    outer loop
      vertex -24.3634 8.72207 4
      vertex -24.6919 9.73284 0
      vertex -24.6919 9.73284 4
    endloop
  endfacet
  facet normal 0.951056 0.309018 0
    outer loop
      vertex -24.6919 9.73284 0
      vertex -24.3634 8.72207 4
      vertex -24.3634 8.72207 0
    endloop
  endfacet
  facet normal 0.743145 0.66913 0
    outer loop
      vertex -23.6523 7.93227 4
      vertex -24.3634 8.72207 0
      vertex -24.3634 8.72207 4
    endloop
  endfacet
  facet normal 0.743145 0.66913 0
    outer loop
      vertex -24.3634 8.72207 0
      vertex -23.6523 7.93227 4
      vertex -23.6523 7.93227 0
    endloop
  endfacet
  facet normal 0.406736 0.913546 -0
    outer loop
      vertex -22.6814 7.5 0
      vertex -23.6523 7.93227 4
      vertex -22.6814 7.5 4
    endloop
  endfacet
  facet normal 0.406736 0.913546 0
    outer loop
      vertex -23.6523 7.93227 4
      vertex -22.6814 7.5 0
      vertex -23.6523 7.93227 0
    endloop
  endfacet
  facet normal 0.994522 -0.104529 0
    outer loop
      vertex -24.6919 9.73284 4
      vertex -24.5808 10.7898 0
      vertex -24.5808 10.7898 4
    endloop
  endfacet
  facet normal 0.994522 -0.104529 0
    outer loop
      vertex -24.5808 10.7898 0
      vertex -24.6919 9.73284 4
      vertex -24.6919 9.73284 0
    endloop
  endfacet
  facet normal 0.866026 -0.499999 0
    outer loop
      vertex -24.5808 10.7898 4
      vertex -24.0494 11.7102 0
      vertex -24.0494 11.7102 4
    endloop
  endfacet
  facet normal 0.866026 -0.499999 0
    outer loop
      vertex -24.0494 11.7102 0
      vertex -24.5808 10.7898 4
      vertex -24.5808 10.7898 0
    endloop
  endfacet
  facet normal 0.587784 -0.809018 0
    outer loop
      vertex -24.0494 11.7102 0
      vertex -23.1896 12.3349 4
      vertex -24.0494 11.7102 4
    endloop
  endfacet
  facet normal 0.587784 -0.809018 0
    outer loop
      vertex -23.1896 12.3349 4
      vertex -24.0494 11.7102 0
      vertex -23.1896 12.3349 0
    endloop
  endfacet
  facet normal -0.207912 -0.978148 0
    outer loop
      vertex -44.3 12.5559 0
      vertex -43.2604 12.3349 4
      vertex -44.3 12.5559 4
    endloop
  endfacet
  facet normal -0.207912 -0.978148 -0
    outer loop
      vertex -43.2604 12.3349 4
      vertex -44.3 12.5559 0
      vertex -43.2604 12.3349 0
    endloop
  endfacet
  facet normal -0.587784 -0.809018 0
    outer loop
      vertex -43.2604 12.3349 0
      vertex -42.4006 11.7102 4
      vertex -43.2604 12.3349 4
    endloop
  endfacet
  facet normal -0.587784 -0.809018 -0
    outer loop
      vertex -42.4006 11.7102 4
      vertex -43.2604 12.3349 0
      vertex -42.4006 11.7102 0
    endloop
  endfacet
  facet normal 0 1 -0
    outer loop
      vertex -43.7686 7.5 0
      vertex -44.8314 7.5 4
      vertex -43.7686 7.5 4
    endloop
  endfacet
  facet normal 0 1 0
    outer loop
      vertex -44.8314 7.5 4
      vertex -43.7686 7.5 0
      vertex -44.8314 7.5 0
    endloop
  endfacet
  facet normal -0.743145 0.66913 0
    outer loop
      vertex -42.7977 7.93227 0
      vertex -42.0866 8.72207 4
      vertex -42.0866 8.72207 0
    endloop
  endfacet
  facet normal -0.743145 0.66913 0
    outer loop
      vertex -42.0866 8.72207 4
      vertex -42.7977 7.93227 0
      vertex -42.7977 7.93227 4
    endloop
  endfacet
  facet normal 0.207912 -0.978148 0
    outer loop
      vertex -45.3396 12.3349 0
      vertex -44.3 12.5559 4
      vertex -45.3396 12.3349 4
    endloop
  endfacet
  facet normal 0.207912 -0.978148 0
    outer loop
      vertex -44.3 12.5559 4
      vertex -45.3396 12.3349 0
      vertex -44.3 12.5559 0
    endloop
  endfacet
  facet normal -0.866026 -0.499999 0
    outer loop
      vertex -41.8692 10.7898 0
      vertex -42.4006 11.7102 4
      vertex -42.4006 11.7102 0
    endloop
  endfacet
  facet normal -0.866026 -0.499999 0
    outer loop
      vertex -42.4006 11.7102 4
      vertex -41.8692 10.7898 0
      vertex -41.8692 10.7898 4
    endloop
  endfacet
  facet normal -0.994522 -0.104529 0
    outer loop
      vertex -41.7581 9.73284 0
      vertex -41.8692 10.7898 4
      vertex -41.8692 10.7898 0
    endloop
  endfacet
  facet normal -0.994522 -0.104529 0
    outer loop
      vertex -41.8692 10.7898 4
      vertex -41.7581 9.73284 0
      vertex -41.7581 9.73284 4
    endloop
  endfacet
  facet normal -0.951056 0.309018 0
    outer loop
      vertex -42.0866 8.72207 0
      vertex -41.7581 9.73284 4
      vertex -41.7581 9.73284 0
    endloop
  endfacet
  facet normal -0.951056 0.309018 0
    outer loop
      vertex -41.7581 9.73284 4
      vertex -42.0866 8.72207 0
      vertex -42.0866 8.72207 4
    endloop
  endfacet
  facet normal -0.406736 0.913546 0
    outer loop
      vertex -42.7977 7.93227 0
      vertex -43.7686 7.5 4
      vertex -42.7977 7.93227 4
    endloop
  endfacet
  facet normal -0.406736 0.913546 0
    outer loop
      vertex -43.7686 7.5 4
      vertex -42.7977 7.93227 0
      vertex -43.7686 7.5 0
    endloop
  endfacet
  facet normal 0.951056 0.309018 0
    outer loop
      vertex -46.5134 8.72207 4
      vertex -46.8419 9.73284 0
      vertex -46.8419 9.73284 4
    endloop
  endfacet
  facet normal 0.951056 0.309018 0
    outer loop
      vertex -46.8419 9.73284 0
      vertex -46.5134 8.72207 4
      vertex -46.5134 8.72207 0
    endloop
  endfacet
  facet normal 0.743145 0.66913 0
    outer loop
      vertex -45.8023 7.93227 4
      vertex -46.5134 8.72207 0
      vertex -46.5134 8.72207 4
    endloop
  endfacet
  facet normal 0.743145 0.66913 0
    outer loop
      vertex -46.5134 8.72207 0
      vertex -45.8023 7.93227 4
      vertex -45.8023 7.93227 0
    endloop
  endfacet
  facet normal 0.406736 0.913546 -0
    outer loop
      vertex -44.8314 7.5 0
      vertex -45.8023 7.93227 4
      vertex -44.8314 7.5 4
    endloop
  endfacet
  facet normal 0.406736 0.913546 0
    outer loop
      vertex -45.8023 7.93227 4
      vertex -44.8314 7.5 0
      vertex -45.8023 7.93227 0
    endloop
  endfacet
  facet normal 0.994522 -0.104529 0
    outer loop
      vertex -46.8419 9.73284 4
      vertex -46.7308 10.7898 0
      vertex -46.7308 10.7898 4
    endloop
  endfacet
  facet normal 0.994522 -0.104529 0
    outer loop
      vertex -46.7308 10.7898 0
      vertex -46.8419 9.73284 4
      vertex -46.8419 9.73284 0
    endloop
  endfacet
  facet normal 0.866026 -0.499999 0
    outer loop
      vertex -46.7308 10.7898 4
      vertex -46.1994 11.7102 0
      vertex -46.1994 11.7102 4
    endloop
  endfacet
  facet normal 0.866026 -0.499999 0
    outer loop
      vertex -46.1994 11.7102 0
      vertex -46.7308 10.7898 4
      vertex -46.7308 10.7898 0
    endloop
  endfacet
  facet normal 0.587784 -0.809018 0
    outer loop
      vertex -46.1994 11.7102 0
      vertex -45.3396 12.3349 4
      vertex -46.1994 11.7102 4
    endloop
  endfacet
  facet normal 0.587784 -0.809018 0
    outer loop
      vertex -45.3396 12.3349 4
      vertex -46.1994 11.7102 0
      vertex -45.3396 12.3349 0
    endloop
  endfacet
  facet normal -6.12303e-017 -1 0
    outer loop
      vertex -54.3 3.93711e-015 0
      vertex 10 2.33575e-023 4
      vertex -54.3 3.93711e-015 4
    endloop
  endfacet
  facet normal -6.12303e-017 -1 -0
    outer loop
      vertex 10 2.33575e-023 4
      vertex -54.3 3.93711e-015 0
      vertex 10 2.33575e-023 0
    endloop
  endfacet
  facet normal 0 1 -0
    outer loop
      vertex -30 20 0
      vertex -54.3 20 4
      vertex -30 20 4
    endloop
  endfacet
  facet normal 0 1 0
    outer loop
      vertex -54.3 20 4
      vertex -30 20 0
      vertex -54.3 20 0
    endloop
  endfacet
  facet normal -1 0 0
    outer loop
      vertex -54.3 3.93711e-015 0
      vertex -54.3 20 4
      vertex -54.3 20 0
    endloop
  endfacet
  facet normal -1 -0 0
    outer loop
      vertex -54.3 20 4
      vertex -54.3 3.93711e-015 0
      vertex -54.3 3.93711e-015 4
    endloop
  endfacet
  facet normal 1 -0 0
    outer loop
      vertex 10 2.33575e-023 4
      vertex 10 3.8147e-007 0
      vertex 10 3.8147e-007 4
    endloop
  endfacet
  facet normal 1 0 0
    outer loop
      vertex 10 3.8147e-007 0
      vertex 10 2.33575e-023 4
      vertex 10 2.33575e-023 0
    endloop
  endfacet
  facet normal -0.707107 0.707107 0
    outer loop
      vertex -30 20 0
      vertex -10 40 4
      vertex -10 40 0
    endloop
  endfacet
  facet normal -0.707107 0.707107 0
    outer loop
      vertex -10 40 4
      vertex -30 20 0
      vertex -30 20 4
    endloop
  endfacet
endsolid OpenSCAD_Model
